<!DOCTYPE svg PUBLIC "-//W3C//DTD SVG 20010904//EN" "http://www.w3.org/TR/2001/REC-SVG-20010904/DTD/svg10.dtd">
<svg version="1.0" xmlns="http://www.w3.org/2000/svg" width="237px" height="52px" viewBox="0 0 12000 2640" preserveAspectRatio="xMidYMid meet">
<g id="layer101" fill="#f7941d" stroke="none">
<path d="M0 395 l0 -395 395 0 395 0 0 75 0 75 -320 0 -320 0 0 320 0 320 -75 0 -75 0 0 -395z"/>
</g>
<g id="layer102" fill="#ffffff" stroke="none">
<path d="M0 2245 l0 -395 75 0 75 0 0 320 0 320 320 0 320 0 0 75 0 75 -395 0 -395 0 0 -395z"/>
<path d="M940 2565 l0 -75 375 0 375 0 0 75 0 75 -375 0 -375 0 0 -75z"/>
<path d="M1850 2565 l0 -75 320 0 320 0 0 -320 0 -320 75 0 75 0 0 395 -1 395 -394 0 -395 0 0 -75z"/>
<path d="M3010 2540 l0 -100 105 0 105 0 0 -200 0 -200 -205 0 -205 0 0 -700 0 -700 300 0 300 0 0 1000 0 1000 -200 0 -200 0 0 -100z m200 -1200 l0 -500 -100 0 -100 0 0 500 0 500 100 0 100 0 0 -500z"/>
<path d="M1062 2058 c-8 -8 -12 -45 -12 -105 l0 -93 -119 0 c-113 0 -121 -1 -135 -22 -21 -30 -20 -44 4 -68 19 -19 33 -20 518 -20 471 0 500 1 515 18 21 23 22 56 1 76 -12 13 -40 16 -134 16 l-119 0 -3 103 -3 102 -250 3 c-187 2 -254 -1 -263 -10z m216 -130 l-3 -63 -67 -3 -68 -3 0 66 0 65 70 0 71 0 -3 -62z m222 -3 l0 -65 -70 0 -70 0 0 65 0 65 70 0 70 0 0 -65z"/>
<path d="M3610 1340 l0 -700 300 0 300 0 0 400 0 400 -200 0 -200 0 0 200 0 200 200 0 200 0 0 100 0 100 -300 0 -300 0 0 -700z m400 -300 l0 -200 -100 0 -100 0 0 200 0 200 100 0 100 0 0 -200z"/>
<path d="M4410 1340 l0 -700 300 0 300 0 0 400 0 400 -200 0 -200 0 0 200 0 200 200 0 200 0 0 100 0 100 -300 0 -300 0 0 -700z m400 -300 l0 -200 -100 0 -100 0 0 200 0 200 100 0 100 0 0 -200z"/>
<path d="M5210 1020 l0 -1020 100 0 100 0 0 520 0 520 100 0 100 0 0 -200 0 -200 100 0 100 0 0 196 0 197 -50 48 c-27 26 -50 52 -50 56 0 5 23 31 50 58 l50 49 0 398 0 398 -100 0 -100 0 0 -400 0 -400 -100 0 -100 0 0 400 0 400 -100 0 -100 0 0 -1020z"/>
<path d="M6410 1840 l0 -200 100 0 100 0 0 100 0 100 100 0 100 0 0 -200 0 -200 -200 0 -200 0 0 -400 0 -400 295 0 295 0 0 200 0 200 -95 0 -95 0 0 -100 0 -100 -100 0 -100 0 0 200 0 200 195 0 195 0 0 400 0 400 -295 0 -295 0 0 -200z"/>
<path d="M7410 1340 l0 -700 295 0 295 0 0 200 0 200 -95 0 -95 0 0 -100 0 -100 -105 0 -105 0 0 500 0 500 105 0 105 0 0 -100 0 -100 95 0 95 0 0 200 0 200 -295 0 -295 0 0 -700z"/>
<path d="M8200 1340 l0 -700 300 0 300 0 0 700 0 700 -300 0 -300 0 0 -700z m400 0 l0 -500 -100 0 -100 0 0 500 0 500 100 0 100 0 0 -500z"/>
<path d="M9000 1340 l0 -700 300 0 300 0 0 300 0 300 -100 0 -100 0 0 -200 0 -200 -100 0 -100 0 0 600 0 600 -100 0 -100 0 0 -700z"/>
<path d="M9800 1340 l0 -700 300 0 300 0 0 700 0 700 -100 0 -100 0 0 -600 0 -600 -100 0 -100 0 0 600 0 600 -100 0 -100 0 0 -700z"/>
<path d="M10600 1340 l0 -700 300 0 300 0 0 400 0 400 -200 0 -200 0 0 200 0 200 200 0 200 0 0 100 0 100 -300 0 -300 0 0 -700z m400 -300 l0 -200 -100 0 -100 0 0 200 0 200 100 0 100 0 0 -200z"/>
<path d="M11400 1340 l0 -700 300 0 300 0 0 300 0 300 -100 0 -100 0 0 -200 0 -200 -100 0 -100 0 0 600 0 600 -100 0 -100 0 0 -700z"/>
<path d="M0 1320 l0 -380 75 0 75 0 0 380 0 380 -75 0 -75 0 0 -380z"/>
<path d="M2490 1320 l0 -380 75 0 75 0 -2 378 -3 377 -72 3 -73 3 0 -381z"/>
<path d="M515 1436 c-33 -14 -90 -74 -99 -103 -3 -10 -14 -82 -25 -160 -16 -112 -25 -147 -41 -163 -17 -17 -20 -33 -20 -118 0 -83 3 -102 18 -115 10 -10 25 -17 34 -17 8 0 23 -9 33 -20 41 -45 92 -51 417 -48 l303 3 47 28 c42 24 56 27 138 27 74 0 97 -4 118 -19 51 -36 99 -41 387 -41 296 0 337 5 390 46 18 13 38 24 46 24 32 0 39 23 39 129 0 88 -3 108 -19 125 -13 16 -24 59 -39 169 -23 169 -43 212 -112 247 -36 19 -58 20 -304 20 -162 0 -276 -4 -293 -11 -39 -14 -91 -67 -102 -103 -6 -17 -17 -85 -26 -151 -19 -133 -31 -155 -89 -155 -57 0 -64 13 -85 155 -22 147 -28 169 -65 208 -50 54 -72 57 -358 57 -195 -1 -271 -4 -293 -14z m541 -148 c10 -16 65 -410 59 -425 -3 -10 -74 -13 -305 -13 l-300 0 0 33 c0 55 52 391 62 405 14 17 473 18 484 0z m1011 0 c12 -17 67 -414 58 -427 -4 -7 -105 -11 -301 -11 -260 0 -295 2 -301 16 -8 20 47 405 60 422 7 9 68 12 242 12 174 0 235 -3 242 -12z"/>
<path d="M2490 470 l0 -320 -320 0 -320 0 0 -75 0 -75 395 0 395 0 -2 392 -3 393 -72 3 -73 3 0 -321z"/>
<path d="M6010 200 l0 -200 100 0 100 0 0 95 c0 94 0 95 -52 200 l-53 105 -47 0 -48 0 0 -200z"/>
<path d="M940 75 l0 -75 375 0 375 0 0 75 0 75 -375 0 -375 0 0 -75z"/>
</g>


</svg>